<svg xmlns="http://www.w3.org/2000/svg" viewBox="0 0 455.7 455.7" width="512" height="512"><path data-original="#F89029" class="active-path" data-old_color="#FF7C00" fill="#ff5e00" d="M0 0h455.7v455.7H0z"/><path d="M350 190.2h-14.1c-11 0-20-8.9-20-20V169a83.7 83.7 0 0 0-83.7-83.7h-62.6A83.7 83.7 0 0 0 86 168.9v118a83.7 83.7 0 0 0 83.7 83.7h116.5a83.7 83.7 0 0 0 83.8-83.8v-76.6c0-11-9-20-20-20zm-176.8-32.6h66.7a16.3 16.3 0 1 1 0 32.6h-66.7a16.3 16.3 0 1 1 0-32.6zM284 298.2H173.2a16.3 16.3 0 1 1 0-32.7H284a16.3 16.3 0 1 1 0 32.7z" data-original="#FFFFFF" data-old_color="#FFFFFF" fill="#fff"/></svg>