<svg id="facebook-square" class= "svg" viewBox="0 0 100 100" width="100%" height="100%">
<path d="M81.25.714c5.165 0 9.58 1.834 13.25 5.502 3.666 3.667 5.5 8.083 5.5 13.248v62.5c0 5.165-1.834 9.58-5.5 13.25-3.67 3.667-8.085 5.5-13.25 5.5H69.01V61.977h12.956l1.953-15.104H69.01v-9.635c0-2.43.51-4.254 1.53-5.47 1.02-1.214 3.006-1.822 5.957-1.822l7.943-.065V16.405c-2.734-.39-6.597-.586-11.588-.586-5.903 0-10.623 1.737-14.16 5.21-3.538 3.47-5.307 8.375-5.307 14.712v11.133h-13.02v15.104h13.02v38.737H18.75c-5.165 0-9.58-1.833-13.25-5.5-3.666-3.67-5.5-8.085-5.5-13.25v-62.5C0 14.3 1.834 9.884 5.5 6.216 9.17 2.548 13.586.714 18.75.714h62.5z" fill-rule="evenodd"></path>
</svg>
