 <svg id="pinterest-square" class="svg" viewBox="0 0 100 100" width="100%" height="100%">
<path d="M81.25.714c5.165 0 9.58 1.834 13.25 5.502 3.666 3.667 5.5 8.083 5.5 13.248v62.5c0 5.165-1.834 9.58-5.5 13.25-3.67 3.667-8.085 5.5-13.25 5.5h-47.2c3.69-5.295 6.032-9.852 7.03-13.672.39-1.475 1.542-6.01 3.45-13.606.913 1.692 2.508 3.146 4.786 4.362 2.28 1.215 4.72 1.823 7.325 1.823 7.857 0 14.27-3.2 19.24-9.602 4.97-6.402 7.453-14.508 7.453-24.317 0-3.645-.76-7.17-2.278-10.578-1.52-3.407-3.614-6.424-6.283-9.05-2.67-2.626-5.98-4.73-9.928-6.315-3.95-1.584-8.225-2.376-12.826-2.376-4.514 0-8.735.62-12.663 1.856-3.928 1.237-7.248 2.898-9.96 4.98-2.713 2.084-5.046 4.46-7 7.13-1.952 2.67-3.395 5.447-4.33 8.333-.932 2.885-1.398 5.76-1.398 8.625 0 4.428.857 8.334 2.57 11.72 1.716 3.385 4.244 5.772 7.586 7.16.564.218 1.074.218 1.53 0 .456-.216.77-.63.944-1.236.434-1.91.76-3.235.976-3.973.26-.998.022-1.91-.716-2.734-2.17-2.69-3.255-5.946-3.255-9.766 0-6.51 2.246-12.076 6.738-16.7 4.493-4.62 10.363-6.933 17.61-6.933 6.468 0 11.514 1.758 15.138 5.274 3.624 3.516 5.436 8.073 5.436 13.672 0 7.292-1.465 13.498-4.395 18.62-2.93 5.12-6.695 7.682-11.296 7.682-2.604 0-4.71-.944-6.315-2.832-1.607-1.888-2.106-4.134-1.5-6.738.35-1.476.924-3.483 1.727-6.023.803-2.54 1.443-4.753 1.92-6.64.478-1.89.716-3.506.716-4.85 0-2.128-.575-3.897-1.725-5.307-1.15-1.41-2.79-2.116-4.915-2.116-2.648 0-4.894 1.226-6.74 3.678-1.843 2.452-2.766 5.48-2.766 9.082 0 3.125.52 5.75 1.563 7.878l-6.38 26.953c-1.042 4.34-1.194 9.852-.456 16.536H18.75c-5.165 0-9.58-1.833-13.25-5.5-3.666-3.67-5.5-8.085-5.5-13.25v-62.5C0 14.3 1.834 9.884 5.5 6.216 9.17 2.548 13.586.714 18.75.714h62.5z" fill-rule="evenodd"></path>
</svg>
