<?xml version="1.0" encoding="iso-8859-1"?>
<!-- Generator: Adobe Illustrator 16.0.0, SVG Export Plug-In . SVG Version: 6.00 Build 0)  -->
<!DOCTYPE svg PUBLIC "-//W3C//DTD SVG 1.1//EN" "http://www.w3.org/Graphics/SVG/1.1/DTD/svg11.dtd">
<svg xmlns="http://www.w3.org/2000/svg" xmlns:xlink="http://www.w3.org/1999/xlink" version="1.1" id="Capa_1" x="0px" y="0px" width="512px" height="512px" viewBox="0 0 94 94" style="enable-background:new 0 0 94 94;" xml:space="preserve">
<g>
	<g>
		<path d="M20.27,41.367c-1.096-0.863-2.449-1.358-3.857-1.358c-3.451,0-6.26,2.81-6.26,6.264c0,2.002,0.971,3.847,2.535,5.009    C13.99,47.557,16.633,44.172,20.27,41.367z" fill="#e00d18"/>
		<path d="M29.9,52.244c0-2.857,2.324-5.18,5.178-5.18s5.176,2.321,5.176,5.18c0,2.854-2.322,5.174-5.176,5.174    S29.9,55.098,29.9,52.244z M59.559,67.592c-2.604,2.609-6.701,3.876-12.516,3.876c-0.016,0-0.027-0.007-0.043-0.007    c-0.016,0-0.027,0.007-0.043,0.007c-5.816,0-9.91-1.267-12.52-3.876c-0.473-0.476-0.473-1.247,0.002-1.723    c0.475-0.473,1.248-0.473,1.723,0c2.127,2.13,5.658,3.166,10.795,3.166c0.016,0,0.027,0.007,0.043,0.007    c0.016,0,0.027-0.007,0.043-0.007c5.135,0,8.666-1.036,10.797-3.166c0.475-0.473,1.246-0.473,1.723,0    C60.035,66.345,60.035,67.116,59.559,67.592z M58.943,57.418c-2.854,0-5.176-2.32-5.176-5.174c0-2.857,2.321-5.18,5.176-5.18    c2.852,0,5.174,2.321,5.174,5.18C64.117,55.098,61.795,57.418,58.943,57.418z" fill="#e00d18"/>
		<path d="M73.84,25.911c2.576,0,4.672-2.099,4.672-4.679c0-2.579-2.096-4.677-4.672-4.677c-2.58,0-4.682,2.098-4.682,4.677    C69.158,23.813,71.26,25.911,73.84,25.911z" fill="#e00d18"/>
		<path d="M77.584,40.009c-1.492,0-2.896,0.539-4.014,1.478c3.617,2.828,6.227,6.234,7.488,9.979    c1.721-1.146,2.789-3.059,2.789-5.193C83.848,42.818,81.039,40.009,77.584,40.009z" fill="#e00d18"/>
		<path d="M89,0H5C2.238,0,0,2.238,0,5v84c0,2.762,2.238,5,5,5h84c2.762,0,5-2.238,5-5V5C94,2.238,91.762,0,89,0z M81.686,53.923    c0.148,0.866,0.242,1.741,0.242,2.634c0,12.859-15.742,23.321-35.092,23.321c-19.348,0-35.088-10.462-35.088-23.321    c0-0.945,0.109-1.877,0.277-2.796c-2.641-1.546-4.309-4.384-4.309-7.488c0-4.796,3.9-8.701,8.695-8.701    c2.191,0,4.277,0.873,5.879,2.351c6.189-4.036,14.611-6.552,23.908-6.666l5.416-17.12c0.193-0.608,0.824-0.968,1.439-0.817    l14.17,3.335c1.037-2.646,3.604-4.531,6.615-4.531c3.92,0,7.109,3.19,7.109,7.11c0,3.924-3.189,7.114-7.109,7.114    c-3.926,0-7.117-3.19-7.117-7.114c0-0.066,0.016-0.124,0.021-0.189l-13.148-3.096L48.74,33.3c8.889,0.317,16.92,2.818,22.85,6.746    c1.611-1.558,3.719-2.475,5.994-2.475c4.797,0,8.699,3.905,8.699,8.701C86.283,49.527,84.504,52.422,81.686,53.923z" fill="#e00d18"/>
	</g>
</g>
<g>
</g>
<g>
</g>
<g>
</g>
<g>
</g>
<g>
</g>
<g>
</g>
<g>
</g>
<g>
</g>
<g>
</g>
<g>
</g>
<g>
</g>
<g>
</g>
<g>
</g>
<g>
</g>
<g>
</g>
</svg>
