<?xml version="1.0" encoding="UTF-8"?>
<!DOCTYPE svg  PUBLIC '-//W3C//DTD SVG 1.1//EN'  'http://www.w3.org/Graphics/SVG/1.1/DTD/svg11.dtd'>
<svg width="512px" height="512px" enable-background="new 0 0 94 94" version="1.1" viewBox="0 0 94 94" xml:space="preserve" xmlns="http://www.w3.org/2000/svg">
	<g fill="#e00d18">
		<path d="m20.27 41.367c-1.096-0.863-2.449-1.358-3.857-1.358-3.451 0-6.26 2.81-6.26 6.264 0 2.002 0.971 3.847 2.535 5.009 1.302-3.725 3.945-7.11 7.582-9.915z"/>
		<path d="m29.9 52.244c0-2.857 2.324-5.18 5.178-5.18s5.176 2.321 5.176 5.18c0 2.854-2.322 5.174-5.176 5.174s-5.178-2.32-5.178-5.174zm29.659 15.348c-2.604 2.609-6.701 3.876-12.516 3.876-0.016 0-0.027-7e-3 -0.043-7e-3s-0.027 7e-3 -0.043 7e-3c-5.816 0-9.91-1.267-12.52-3.876-0.473-0.476-0.473-1.247 2e-3 -1.723 0.475-0.473 1.248-0.473 1.723 0 2.127 2.13 5.658 3.166 10.795 3.166 0.016 0 0.027 7e-3 0.043 7e-3s0.027-7e-3 0.043-7e-3c5.135 0 8.666-1.036 10.797-3.166 0.475-0.473 1.246-0.473 1.723 0 0.472 0.476 0.472 1.247-4e-3 1.723zm-0.616-10.174c-2.854 0-5.176-2.32-5.176-5.174 0-2.857 2.321-5.18 5.176-5.18 2.852 0 5.174 2.321 5.174 5.18 0 2.854-2.322 5.174-5.174 5.174z"/>
		<path d="m73.84 25.911c2.576 0 4.672-2.099 4.672-4.679 0-2.579-2.096-4.677-4.672-4.677-2.58 0-4.682 2.098-4.682 4.677 0 2.581 2.102 4.679 4.682 4.679z"/>
		<path d="m77.584 40.009c-1.492 0-2.896 0.539-4.014 1.478 3.617 2.828 6.227 6.234 7.488 9.979 1.721-1.146 2.789-3.059 2.789-5.193 1e-3 -3.455-2.808-6.264-6.263-6.264z"/>
		<path d="m89 0h-84c-2.762 0-5 2.238-5 5v84c0 2.762 2.238 5 5 5h84c2.762 0 5-2.238 5-5v-84c0-2.762-2.238-5-5-5zm-7.314 53.923c0.148 0.866 0.242 1.741 0.242 2.634 0 12.859-15.742 23.321-35.092 23.321-19.348 0-35.088-10.462-35.088-23.321 0-0.945 0.109-1.877 0.277-2.796-2.641-1.546-4.309-4.384-4.309-7.488 0-4.796 3.9-8.701 8.695-8.701 2.191 0 4.277 0.873 5.879 2.351 6.189-4.036 14.611-6.552 23.908-6.666l5.416-17.12c0.193-0.608 0.824-0.968 1.439-0.817l14.17 3.335c1.037-2.646 3.604-4.531 6.615-4.531 3.92 0 7.109 3.19 7.109 7.11 0 3.924-3.189 7.114-7.109 7.114-3.926 0-7.117-3.19-7.117-7.114 0-0.066 0.016-0.124 0.021-0.189l-13.148-3.096-4.854 15.351c8.889 0.317 16.92 2.818 22.85 6.746 1.611-1.558 3.719-2.475 5.994-2.475 4.797 0 8.699 3.905 8.699 8.701 0 3.255-1.779 6.15-4.597 7.651z"/>
	</g>
</svg>
