<?xml version="1.0" encoding="UTF-8"?>
<!DOCTYPE svg  PUBLIC '-//W3C//DTD SVG 1.1//EN'  'http://www.w3.org/Graphics/SVG/1.1/DTD/svg11.dtd'>
<svg enable-background="new 0 0 455.731 455.731" version="1.1" viewBox="0 0 455.73 455.73" xml:space="preserve" xmlns="http://www.w3.org/2000/svg">
	<rect width="455.73" height="455.73" fill="#2F4F6E"/>
	<path d="m336.47 330.07v55.802c-0.103 0.043-0.214 0.086-0.317 0.129-6.631 3.105-13.374 5.953-20.228 8.544-16.307 6.159-33.172 9.591-50.586 10.337-1.536 0.06-3.071 0.163-4.615 0.24-3.371 0-10.56-0.086-10.791-0.094-5.379-0.146-10.731-0.566-16.067-1.27-8.758-1.167-17.311-3.165-25.598-6.271-13.168-4.915-24.774-12.198-34.399-22.527-7.463-8.012-12.464-17.242-14.437-28.085-1.501-8.278-2.093-16.616-2.093-25.006-0.034-41.613-0.017-84.179-0.017-125.79h-38.066v-50.749c4.212-1.664 8.445-3.122 12.554-5.027 21.729-10.097 37.624-26.095 47.712-47.815 4.933-10.637 7.703-21.926 9.608-33.455 0.463-2.797 0.832-5.61 1.244-8.415h50.269l0.017 89.806h84.102v55.656h-84.144s0.051 99.011 0.129 102.31c0.18 7.523 0.54 15.029 1.69 22.484 1.244 8.012 5.25 14.223 12.001 18.666 6.614 4.349 13.914 6.837 21.772 7.678 7.815 0.841 15.57 0.249 23.264-1.304 13.431-2.703 25.613-8.347 36.996-15.845z" fill="#fff"/>
</svg>
