 <svg id="twitter-square" class="svg" viewBox="0 0 100 100" width="100%" height="100%">
<path d="M83.333 32.094c-2.43 1.086-5.056 1.823-7.877 2.214 2.95-1.736 4.97-4.275 6.054-7.617-2.82 1.65-5.73 2.757-8.724 3.32-2.647-2.863-5.967-4.296-9.96-4.296-3.777 0-7 1.335-9.668 4.004-2.67 2.67-4.004 5.892-4.004 9.668 0 1.26.108 2.3.325 3.125-5.6-.303-10.852-1.713-15.756-4.23-4.905-2.518-9.07-5.882-12.5-10.092-1.26 2.17-1.888 4.47-1.888 6.9 0 4.95 1.975 8.747 5.924 11.395-2.04-.044-4.21-.608-6.51-1.693v.13c0 3.255 1.085 6.152 3.255 8.69 2.17 2.54 4.84 4.114 8.008 4.72-1.26.35-2.365.522-3.32.522-.565 0-1.41-.086-2.54-.26.912 2.734 2.53 4.99 4.85 6.77 2.323 1.78 4.96 2.692 7.91 2.735-5.034 3.906-10.698 5.86-16.99 5.86-1.13 0-2.215-.066-3.256-.196 6.423 4.08 13.41 6.12 20.963 6.12 4.86 0 9.42-.77 13.672-2.31 4.254-1.54 7.9-3.603 10.938-6.185 3.038-2.583 5.653-5.556 7.845-8.92 2.19-3.363 3.82-6.88 4.882-10.546 1.064-3.67 1.596-7.325 1.596-10.97 0-.783-.022-1.37-.066-1.76 2.735-1.952 5.013-4.318 6.836-7.096zM100 19.464v62.5c0 5.165-1.834 9.58-5.5 13.25-3.67 3.667-8.085 5.5-13.25 5.5h-62.5c-5.165 0-9.58-1.833-13.25-5.5-3.666-3.67-5.5-8.085-5.5-13.25v-62.5C0 14.3 1.834 9.884 5.5 6.216 9.17 2.548 13.586.714 18.75.714h62.5c5.165 0 9.58 1.834 13.25 5.502 3.666 3.667 5.5 8.083 5.5 13.248z" fill-rule="evenodd"></path>
</svg>
