<?xml version="1.0" encoding="UTF-8"?>
<!DOCTYPE svg  PUBLIC '-//W3C//DTD SVG 1.1//EN'  'http://www.w3.org/Graphics/SVG/1.1/DTD/svg11.dtd'>
<svg enable-background="new 0 0 455.731 455.731" version="1.1" viewBox="0 0 455.73 455.73" xml:space="preserve" xmlns="http://www.w3.org/2000/svg">
	<rect width="455.73" height="455.73" fill="#1BD741"/>
	<g fill="#fff">
		<path d="m68.494 387.41 22.323-79.284c-14.355-24.387-21.913-52.134-21.913-80.638 0-87.765 71.402-159.17 159.17-159.17s159.17 71.402 159.17 159.17-71.401 159.17-159.17 159.17c-27.347 0-54.125-7-77.814-20.292l-81.763 21.047zm85.943-50.004 4.872 2.975c20.654 12.609 44.432 19.274 68.762 19.274 72.877 0 132.17-59.29 132.17-132.17s-59.289-132.17-132.17-132.17-132.17 59.29-132.17 132.17c0 25.393 7.217 50.052 20.869 71.311l3.281 5.109-12.855 45.658 47.238-12.16z"/>
		<path d="m183.36 153.41-10.328-0.563c-3.244-0.177-6.426 0.907-8.878 3.037-5.007 4.348-13.013 12.754-15.472 23.708-3.667 16.333 2 36.333 16.667 56.333s42 52 90.333 65.667c15.575 4.404 27.827 1.435 37.28-4.612 7.487-4.789 12.648-12.476 14.508-21.166l1.649-7.702c0.524-2.448-0.719-4.932-2.993-5.98l-34.905-16.089c-2.266-1.044-4.953-0.384-6.477 1.591l-13.703 17.764c-1.035 1.342-2.807 1.874-4.407 1.312-9.384-3.298-40.818-16.463-58.066-49.687-0.748-1.441-0.562-3.19 0.499-4.419l13.096-15.15c1.338-1.547 1.676-3.722 0.872-5.602l-15.046-35.201c-0.801-1.874-2.596-3.13-4.629-3.241z"/>
	</g>
</svg>
